<?xml version="1.0" encoding="UTF-8"?><svg id="_レイヤー_1" xmlns="http://www.w3.org/2000/svg" viewBox="0 0 2048 1365.33"><defs><style>.cls-1{fill:#00caca;}.cls-2{fill:#0cc;}.cls-3{fill:#0ee;}</style></defs><polygon class="cls-2" points="1024 1024 1365.33 682.67 1024 341.33 938.67 426.67 1194.67 682.67 938.67 938.67 1024 1024"/><polygon class="cls-2" points="853.33 1024 682.67 1194.67 170.67 682.67 682.67 170.67 853.33 341.33 938.67 256 682.67 0 0 682.67 682.67 1365.33 938.67 1109.33 853.33 1024"/><rect class="cls-1" x="920.99" y="498.62" width="120.68" height="965.44" transform="translate(981.33 -406.48) rotate(45)"/><path class="cls-3" d="m682.67,682.67l682.67,682.67,682.67-682.67L1365.33,0l-682.67,682.67Zm1194.67,0l-512,512-512-512,512-512,512,512Z"/></svg>